<?xml version="1.0" encoding="utf-8"?>
<!-- Generator: Adobe Illustrator 22.0.1, SVG Export Plug-In . SVG Version: 6.00 Build 0)  -->
<svg version="1.1" id="Layer_1" xmlns="http://www.w3.org/2000/svg" xmlns:xlink="http://www.w3.org/1999/xlink" x="0px" y="0px"
	 viewBox="0 0 53 46" style="enable-background:new 0 0 53 46;" xml:space="preserve">
<style type="text/css">
	.st0{fill-rule:evenodd;clip-rule:evenodd;fill:#385CAD;}
</style>
<g>
	<polyline class="st0" points="0.8,32.7 13.2,32.7 13.2,36.4 9.6,36.4 9.6,45.5 4.5,45.5 4.5,36.4 0.8,36.4 0.8,32.7 	"/>
	<polyline class="st0" points="19.4,37.9 16.8,45.5 11.9,45.5 16.7,32.7 22.1,32.7 27.1,45.5 22.1,45.5 19.4,37.9 	"/>
	<polyline class="st0" points="25.9,32.7 38.3,32.7 38.3,36.4 34.7,36.4 34.7,45.5 29.6,45.5 29.6,36.4 25.9,36.4 25.9,32.7 	"/>
	<polyline class="st0" points="44.6,37.9 42,45.5 37,45.5 41.9,32.7 47.2,32.7 52.2,45.5 47.2,45.5 44.6,37.9 	"/>
	<path class="st0" d="M44.7,9.1c-0.5-0.9-1.1-1.8-1.8-2.6c-1.7-1.8-4.1-3.4-6.9-4.4c-2.9-1.1-6.1-1.6-9.5-1.6s-6.6,0.6-9.5,1.6
		c-2.8,1.1-5.2,2.6-6.9,4.4C9.4,7.4,8.8,8.2,8.3,9.1c3.7-0.9,10-2.1,15.9-2.2c0.6,0,1,0.2,1.2,0.5c0.3,0.4,0.3,1.8,0.3,2.4
		l-0.2,16.3c0.3,0,0.7,0,1,0c0.3,0,0.7,0,1,0L27.3,9.9c0-0.6,0-2,0.3-2.4c0.3-0.3,0.6-0.5,1.2-0.5C34.7,7.1,41,8.2,44.7,9.1"/>
	<path class="st0" d="M45.5,11.3c-5.4-1.2-9-1.4-12.6-1.6c-3.1-0.2-3.1,0.9-2.8,3.1c0,0.1,0,0.3,0.1,0.5c1,6.2,2.3,11.5,2.6,12.4
		c7.6-1.7,13-6.5,13-12.2C45.8,12.7,45.7,12,45.5,11.3"/>
	<path class="st0" d="M22.9,12.7c0.3-2.1,0.3-3.2-2.8-3.1c-3.6,0.2-7.2,0.4-12.6,1.6c-0.2,0.7-0.3,1.4-0.3,2.1c0,2.4,1,4.8,2.9,6.8
		c1.7,1.8,4.1,3.4,6.9,4.4c1,0.4,2.1,0.7,3.2,0.9c0.2-0.8,1.5-6.3,2.6-12.6C22.9,12.9,22.9,12.8,22.9,12.7"/>
</g>
</svg>
